<svg width="911" height="177" viewBox="0 0 911 177" fill="none" xmlns="http://www.w3.org/2000/svg">
<path d="M0.797363 174L77.2974 4H116.297L176.297 159H139.297L129.797 135L72.7974 138L120.797 103.5L96.7974 42.5L72.7974 101.5H59.2974L29.7974 162L32.7974 163.5L59.7974 144.5L64.2974 145L53.7974 170.5L0.797363 174Z" fill="#2F3540" stroke="#2D3840"/>
<path d="M30.7974 161.5L59.7974 102.5L107.297 103.5L54.7974 144L59.2974 144.5L33.2974 162.5L30.7974 161.5Z" fill="#FE9000" stroke="#FE9000"/>
<path d="M232.361 26.0039C240.989 27.1149 247.168 28.6346 251.717 31.8115C256.291 35.0057 259.153 39.8249 261.279 47.3643L261.297 47.4307V60.5713L261.278 60.6396C259.927 65.2817 258.322 68.4931 255.92 71.0488C253.579 73.5409 250.513 75.3712 246.297 77.3193V78.5723C251.198 79.3191 254.916 80.1465 258.188 81.5439C261.564 82.9858 264.438 85.0203 267.646 88.1416L267.668 88.1641L267.689 88.1885C274.726 97.0255 276.505 107.615 274.941 116.841C273.38 126.048 268.473 133.978 262.035 137.44C252.533 143.127 246.306 145.007 234.379 146.993L234.338 147H190.969L190.838 146.698L166.838 91.1982L166.797 91.1035V26H232.33L232.361 26.0039ZM201.297 121.5H232.297C239.394 119.717 242.528 118.205 244.797 113.5V101.5C242.043 96.0353 239.171 94.3955 232.297 93.5H201.297V121.5ZM199.797 47.5V72.5H224.297C230.5 71.7517 232.715 70.2367 234.297 65.5V53.5C233.165 49.9425 231.587 48.6359 227.297 47.5H199.797Z" fill="#2F3540"/>
<path d="M266.797 51V26V24.5L359.797 24V51H329.297V141.5H299.297V51H266.797Z" fill="#2F3540" stroke="#2F3540"/>
<path d="M453.362 19.0039C463.793 20.3582 471.174 22.2016 476.563 25.915C481.977 29.6463 485.314 35.2181 487.778 43.8633L487.797 43.9297V105.532L487.793 105.563C486.571 115.049 484.049 121.859 479.062 127.016C474.085 132.162 466.711 135.6 455.926 138.483L455.866 138.499L455.802 138.5L404.802 139H404.778L404.753 138.998C393.184 137.975 385.278 135.852 379.466 131.399C373.649 126.942 370.005 120.209 366.821 110.151L366.797 110.077V51.959L366.804 51.9189C368.408 42.1392 370.698 35.1889 375.411 30.04C380.123 24.8908 387.193 21.614 398.182 19.0137L398.239 19H453.33L453.362 19.0039ZM410.297 43.5C404.082 45.9154 402.208 48.5921 400.297 54.5V102.5C402.167 109.875 404.922 112.662 413.797 114.5H443.797C450.511 111.912 452.792 109.081 455.297 104V52.5C452.63 46.9318 450.106 45.0893 444.297 43.5H410.297Z" fill="#2F3540"/>
<path d="M650.978 0.726562L635.978 30.2266L635.839 30.5H552.473L549.601 53H608.075L608.117 53.0068C615.139 54.2019 620.408 55.4547 625.132 57.4258C629.863 59.3995 634.026 62.0842 638.853 66.1162L638.902 66.1562L638.938 66.208L638.533 66.5L638.939 66.208L638.94 66.21C638.941 66.2114 638.943 66.214 638.945 66.2168C638.949 66.2225 638.955 66.2312 638.962 66.2422C638.978 66.2643 639.002 66.2969 639.033 66.3398C639.094 66.4258 639.184 66.552 639.298 66.7158C639.528 67.0436 639.857 67.5208 640.259 68.1182C641.065 69.313 642.163 70.9924 643.334 72.9277C645.671 76.7868 648.326 81.7092 649.513 85.8623L649.533 85.9297V102.539L649.527 102.578C648.34 110.121 646.81 115.58 644.181 120.346C641.552 125.112 637.844 129.149 632.359 133.879L632.345 133.891C627.542 137.735 623.256 140.32 618.143 142.228C613.04 144.132 607.133 145.353 599.103 146.495L599.068 146.5H486.033L485.797 145.559C490.439 143.079 493.691 140.71 496.185 137.821C498.669 134.944 500.427 131.52 502.042 126.887L503.036 117.447V117.444L507.036 81.4443L511.034 42.4658L512.529 17.54L511.566 13.209L505.159 4.33691L501.204 0.875977L500.202 0H651.348L650.978 0.726562ZM549.533 78.5L546.033 114.5H596.033C604.853 112.06 609.187 109.482 611.533 100V89.5C607.957 82.635 604.419 80.6768 597.033 78.5H549.533Z" fill="#FC9000"/>
<path d="M651.797 41L648.297 35V34L693.297 34.5L711.297 104L743.797 34.5H793.797H796.797L793.797 36C788.566 38.1656 785.952 40.171 781.797 45L721.297 143.5C712.936 154.831 705.591 160.258 689.797 169C678.173 172.932 670.631 174.635 655.797 177L637.797 176.5L646.797 146H660.297C670.379 144.118 674.754 141.079 680.797 134.5V121.5L676.297 106.5L661.297 62.5L651.797 41Z" fill="#FC9000"/>
<path d="M901.797 127L877.797 108C871.322 115.566 866.089 118.454 854.297 121.5H836.297C820.157 117.71 814.647 112.735 810.297 99.5V91C815.191 73.4989 823.197 67.0745 844.297 60H862.297C872.435 61.3287 877.129 63.8445 884.297 70.5L910.797 50C898.942 38.6381 889.873 34.5651 869.797 31H844.297C795.317 39.9832 781.375 54.3118 769.797 89V107C772.542 122.7 776.435 130.327 791.297 140C800.329 146.77 806.427 149.362 820.297 150.5H858.297C874.745 146.651 882.879 142.49 895.297 133L901.797 127Z" fill="#FC9000"/>
</svg>
